# xmcd CD database file
#
# Track frame offsets:
#	150
#	18397
#	39525
#
# Disc length: 768 seconds
#
# Revision: 0
# Processed by: cddbd v1.5PL3 Copyright (c) Steve Scherf et al.
# Submitted via: CDex 1.40Release
#
DISCID=1b02fe03
DTITLE=宇徳 敬子 - あなたは 私の ENERGY
DYEAR=1995
DGENRE=J-POP
TTITLE0=あなたは 私の ENERGY
TTITLE1=もしも．．．
TTITLE2=あなたは 私の ENERGY (オリジナル・カラオケ)
EXTD=YEAR: 1995
EXTT0=
EXTT1=
EXTT2=
PLAYORDER=
